<?xml version="1.0" encoding="UTF-8"?>
<svg width="1200pt" height="1200pt" version="1.1" viewBox="0 0 1200 1200" xmlns="http://www.w3.org/2000/svg">
 <g>
  <path d="m131.25 1162.5h543.75c24.855-0.03125 48.684-9.918 66.258-27.492 17.574-17.574 27.461-41.402 27.492-66.258v-10.312l369.79-640.46c12.391-21.547 15.738-47.125 9.3047-71.133-6.4297-24.008-22.117-44.484-43.617-56.949l-345.09-199.22c-7.6055-15.879-19.535-29.289-34.414-38.695-14.883-9.4062-32.113-14.426-49.719-14.48h-543.75c-24.855 0.03125-48.684 9.918-66.258 27.492-17.574 17.574-27.461 41.402-27.492 66.258v937.5c0.03125 24.855 9.918 48.684 27.492 66.258 17.574 17.574 41.402 27.461 66.258 27.492zm637.5-936.36 262.97 151.88-262.97 455.44zm0 682.33 295.46-511.77c4.9727-8.6133 6.3164-18.852 3.7383-28.457-2.5742-9.6055-8.8633-17.797-17.48-22.766l-281.72-162.66v-43.293l316.73 182.85v-0.003906c12.934 7.4531 22.375 19.742 26.246 34.164 3.8672 14.418 1.8438 29.785-5.6211 42.711l-337.35 584.18zm-693.75-777.23c0-14.918 5.9258-29.227 16.477-39.773 10.547-10.551 24.855-16.477 39.773-16.477h543.75c14.918 0 29.227 5.9258 39.773 16.477 10.551 10.547 16.477 24.855 16.477 39.773v937.5c0 14.918-5.9258 29.227-16.477 39.773-10.547 10.551-24.855 16.477-39.773 16.477h-543.75c-14.918 0-29.227-5.9258-39.773-16.477-10.551-10.547-16.477-24.855-16.477-39.773z"/>
  <path d="m281.25 956.25c0 10.355-8.3945 18.75-18.75 18.75s-18.75-8.3945-18.75-18.75 8.3945-18.75 18.75-18.75 18.75 8.3945 18.75 18.75"/>
  <path d="m1031.2 900c4.9727 0 9.7422-1.9766 13.258-5.4922 3.5156-3.5156 5.4922-8.2852 5.4922-13.258v-18.75h18.75c6.6992 0 12.887-3.5742 16.238-9.375 3.3477-5.8008 3.3477-12.949 0-18.75-3.3516-5.8008-9.5391-9.375-16.238-9.375h-18.75v-18.75c0-6.6992-3.5742-12.887-9.375-16.238-5.8008-3.3477-12.949-3.3477-18.75 0-5.8008 3.3516-9.375 9.5391-9.375 16.238v18.75h-18.75c-6.6992 0-12.887 3.5742-16.238 9.375-3.3477 5.8008-3.3477 12.949 0 18.75 3.3516 5.8008 9.5391 9.375 16.238 9.375h18.75v18.75c0 4.9727 1.9766 9.7422 5.4922 13.258 3.5156 3.5156 8.2852 5.4922 13.258 5.4922z"/>
  <path d="m1106.2 1162.5c14.918 0 29.227-5.9258 39.773-16.477 10.551-10.547 16.477-24.855 16.477-39.773s-5.9258-29.227-16.477-39.773c-10.547-10.551-24.855-16.477-39.773-16.477s-29.227 5.9258-39.773 16.477c-10.551 10.547-16.477 24.855-16.477 39.773s5.9258 29.227 16.477 39.773c10.547 10.551 24.855 16.477 39.773 16.477zm0-75c4.9727 0 9.7422 1.9766 13.258 5.4922 3.5156 3.5156 5.4922 8.2852 5.4922 13.258s-1.9766 9.7422-5.4922 13.258c-3.5156 3.5156-8.2852 5.4922-13.258 5.4922s-9.7422-1.9766-13.258-5.4922c-3.5156-3.5156-5.4922-8.2852-5.4922-13.258s1.9766-9.7422 5.4922-13.258c3.5156-3.5156 8.2852-5.4922 13.258-5.4922z"/>
  <path d="m1050 93.75c0 14.918 5.9258 29.227 16.477 39.773 10.547 10.551 24.855 16.477 39.773 16.477s29.227-5.9258 39.773-16.477c10.551-10.547 16.477-24.855 16.477-39.773s-5.9258-29.227-16.477-39.773c-10.547-10.551-24.855-16.477-39.773-16.477s-29.227 5.9258-39.773 16.477c-10.551 10.547-16.477 24.855-16.477 39.773zm75 0c0 4.9727-1.9766 9.7422-5.4922 13.258-3.5156 3.5156-8.2852 5.4922-13.258 5.4922s-9.7422-1.9766-13.258-5.4922c-3.5156-3.5156-5.4922-8.2852-5.4922-13.258s1.9766-9.7422 5.4922-13.258c3.5156-3.5156 8.2852-5.4922 13.258-5.4922s9.7422 1.9766 13.258 5.4922c3.5156 3.5156 5.4922 8.2852 5.4922 13.258z"/>
  <path d="m494.1 506.93-16.012-255h-0.003906c-0.31641-5.1445-2.7344-9.9336-6.6914-13.238l-56.25-46.875c-3.3711-2.8164-7.625-4.3594-12.02-4.3594s-8.6484 1.543-12.02 4.3594l-56.25 46.875c-3.8906 3.25-6.2969 7.9375-6.6758 12.992l-19.199 255.56c-18.426 3.5039-33.895 15.961-41.246 33.215-7.3516 17.258-5.6211 37.043 4.6211 52.758 10.238 15.715 27.641 25.289 46.395 25.535h28.125v46.875c0 20.098 10.723 38.664 28.125 48.715 17.402 10.047 38.848 10.047 56.25 0 17.402-10.051 28.125-28.617 28.125-48.715v-46.875h28.125c19.285 0.042969 37.242-9.8242 47.547-26.129 10.305-16.301 11.512-36.754 3.1953-54.156-8.3125-17.402-24.984-29.312-44.141-31.539zm-129.11-244.43 38.137-31.875 38.043 31.707 15.301 243.92h-34.594v-37.5c0-6.6992-3.5742-12.887-9.375-16.238-5.8008-3.3477-12.949-3.3477-18.75 0-5.8008 3.3516-9.375 9.5391-9.375 16.238v37.5h-37.727zm56.887 403.12c0 6.6992-3.5742 12.887-9.375 16.238-5.8008 3.3477-12.949 3.3477-18.75 0-5.8008-3.3516-9.375-9.5391-9.375-16.238v-46.875h37.5zm65.625-84.375h-168.75c-6.6992 0-12.887-3.5742-16.238-9.375-3.3477-5.8008-3.3477-12.949 0-18.75 3.3516-5.8008 9.5391-9.375 16.238-9.375h168.75c6.6992 0 12.887 3.5742 16.238 9.375 3.3477 5.8008 3.3477 12.949 0 18.75-3.3516 5.8008-9.5391 9.375-16.238 9.375z"/>
  <path d="m337.5 975h206.25c6.6992 0 12.887-3.5742 16.238-9.375 3.3477-5.8008 3.3477-12.949 0-18.75-3.3516-5.8008-9.5391-9.375-16.238-9.375h-206.25c-6.6992 0-12.887 3.5742-16.238 9.375-3.3477 5.8008-3.3477 12.949 0 18.75 3.3516 5.8008 9.5391 9.375 16.238 9.375z"/>
  <path d="m131.25 1012.5c14.918 0 29.227 5.9258 39.773 16.477 10.551 10.547 16.477 24.855 16.477 39.773 0 4.9727 1.9766 9.7422 5.4922 13.258 3.5156 3.5156 8.2852 5.4922 13.258 5.4922h393.75c4.9727 0 9.7422-1.9766 13.258-5.4922 3.5156-3.5156 5.4922-8.2852 5.4922-13.258 0-14.918 5.9258-29.227 16.477-39.773 10.547-10.551 24.855-16.477 39.773-16.477 4.9727 0 9.7422-1.9766 13.258-5.4922 3.5156-3.5156 5.4922-8.2852 5.4922-13.258v-787.5c0-4.9727-1.9766-9.7422-5.4922-13.258-3.5156-3.5156-8.2852-5.4922-13.258-5.4922-14.918 0-29.227-5.9258-39.773-16.477-10.551-10.547-16.477-24.855-16.477-39.773 0-4.9727-1.9766-9.7422-5.4922-13.258-3.5156-3.5156-8.2852-5.4922-13.258-5.4922h-393.75c-4.9727 0-9.7422 1.9766-13.258 5.4922-3.5156 3.5156-5.4922 8.2852-5.4922 13.258 0 14.918-5.9258 29.227-16.477 39.773-10.547 10.551-24.855 16.477-39.773 16.477-4.9727 0-9.7422 1.9766-13.258 5.4922-3.5156 3.5156-5.4922 8.2852-5.4922 13.258v787.5c0 4.9727 1.9766 9.7422 5.4922 13.258 3.5156 3.5156 8.2852 5.4922 13.258 5.4922zm18.75-789.38c18.004-3.7031 34.527-12.605 47.523-25.602 12.996-12.996 21.898-29.52 25.602-47.523h360c3.7031 18.004 12.605 34.527 25.602 47.523 12.996 12.996 29.52 21.898 47.523 25.602v545.62h-506.25zm0 583.12h506.25v37.5h-506.25zm0 75h506.25v95.625c-18.004 3.7031-34.527 12.605-47.523 25.602-12.996 12.996-21.898 29.52-25.602 47.523h-360c-3.7031-18.004-12.605-34.527-25.602-47.523-12.996-12.996-29.52-21.898-47.523-25.602z"/>
 </g>
</svg>
